<?xml version="1.0" encoding="UTF-8" standalone="no"?>
<!-- Uploaded to: SVG Repo, www.svgrepo.com, Generator: SVG Repo Mixer Tools -->

<svg
   height="800px"
   width="800px"
   version="1.1"
   id="Capa_1"
   viewBox="0 0 61.723 61.723"
   xml:space="preserve"
   sodipodi:docname="crosswalk.svg"
   inkscape:version="1.4 (e7c3feb1, 2024-10-09)"
   xmlns:inkscape="http://www.inkscape.org/namespaces/inkscape"
   xmlns:sodipodi="http://sodipodi.sourceforge.net/DTD/sodipodi-0.dtd"
   xmlns="http://www.w3.org/2000/svg"
   xmlns:svg="http://www.w3.org/2000/svg"><defs
   id="defs7">
		
		
		
		
		
		
	</defs><sodipodi:namedview
   id="namedview7"
   pagecolor="#ffffff"
   bordercolor="#000000"
   borderopacity="0.25"
   inkscape:showpageshadow="2"
   inkscape:pageopacity="0.0"
   inkscape:pagecheckerboard="0"
   inkscape:deskcolor="#d1d1d1"
   inkscape:zoom="0.74499676"
   inkscape:cx="400.67289"
   inkscape:cy="461.74698"
   inkscape:window-width="1120"
   inkscape:window-height="815"
   inkscape:window-x="151"
   inkscape:window-y="21"
   inkscape:window-maximized="0"
   inkscape:current-layer="g7" />
<g
   id="g7"
   style="display:inline">
	<path
   style="fill:#ffffff"
   d="M 15.972,10.035 C 18.738,9.722 20.72,7.225 20.405,4.464 20.088,1.7 17.592,-0.284 14.832,0.033 12.068,0.35 10.086,2.846 10.399,5.608 c 0.318,2.762 2.813,4.746 5.573,4.427 z"
   id="path1" /><path
   style="fill:#ffffff"
   d="m 33.031,25.669 c -0.104,-0.358 -0.244,-0.721 -0.434,-1.087 -1.37,-2.669 -2.802,-5.309 -4.266,-7.931 1.551,0.12 3.102,0.24 4.654,0.361 1.062,2.099 2.123,4.197 3.186,6.297 1.711,3.38 6.775,0.407 5.07,-2.963 -1.368,-2.709 -2.99,-8.799 -6.528,-9.073 -3.762,-0.293 -7.525,-0.584 -11.288,-0.876 -0.09,-0.007 -0.168,0.006 -0.255,0.005 -2.857,-0.767 -6.208,1.262 -6.791,4.184 -1.923,4.15 -4.689,7.385 -9.313,8.737 -3.628,1.061 -2.083,6.73 1.561,5.663 4.581,-1.34 7.871,-3.965 10.367,-7.421 1.511,2.693 2.986,5.407 4.4,8.153 -3.109,2.144 -5.826,4.739 -8.206,7.729 -0.664,0.836 -0.777,1.693 -0.554,2.449 -0.008,0.278 0.009,0.57 0.09,0.89 0.916,3.622 1.831,7.246 2.748,10.868 0.972,3.861 7.082,2.759 6.101,-1.125 -0.872,-3.449 -1.745,-6.9 -2.617,-10.354 2.187,-2.577 4.765,-4.821 7.71,-6.493 0.694,-0.396 1.13,-0.938 1.373,-1.537 4.031,6.176 8.062,14.717 12.089,19.896 2.456,3.154 7.373,-0.629 4.908,-3.794 C 41.046,39.3 34.19,27.646 33.031,25.669 Z"
   id="path2" /><path
   style="fill:#010002"
   d="m 12.948,40.312 c -0.2,-0.908 -0.091,-1.83 0.3,-2.69 H 6.806 v 24.101 h 7.635 V 46.713 L 13.104,41.425 C 13.01,41.057 12.958,40.682 12.948,40.312 Z"
   id="path3" /><path
   style="fill:#010002"
   d="m 22.976,40.843 2.391,9.462 c 0.362,1.436 0.102,2.814 -0.735,3.889 -0.892,1.146 -2.367,1.828 -3.946,1.828 -0.067,0 -0.134,-0.004 -0.202,-0.008 v 5.709 h 7.635 V 37.621 h -1.734 c -1.192,0.953 -2.333,2.027 -3.409,3.222 z"
   id="path4" /><path
   style="fill:#010002"
   d="m 40.822,53.326 c -1.818,-2.34 -3.633,-5.33 -5.412,-8.434 V 61.72 h 7.635 v -6.775 c -0.851,-0.293 -1.616,-0.84 -2.223,-1.619 z"
   id="path5" /><path
   style="fill:#010002"
   d="m 49.089,37.62 v 0 10.696 c 0.604,1.267 0.622,2.685 0,3.966 v 9.438 h 7.636 v -24.1 z"
   id="path6" />
</g>
</svg>
